<?xml version="1.0" encoding="utf-8"?>
<!-- Generator: Adobe Illustrator 28.3.0, SVG Export Plug-In . SVG Version: 6.00 Build 0)  -->
<svg version="1.1" id="Camada_1" xmlns="http://www.w3.org/2000/svg" xmlns:xlink="http://www.w3.org/1999/xlink" x="0px" y="0px"
	 viewBox="0 0 1920 1080" style="enable-background:new 0 0 1920 1080;" xml:space="preserve">
<style type="text/css">
	.st0{clip-path:url(#SVGID_00000041979432243474237220000016101047836844677549_);}
	.st1{fill:#FFFFFF;}
</style>
<g id="stopwatch.psd">
	<defs>
		<rect id="SVGID_1_" x="768" y="348" width="384" height="384"/>
	</defs>
	<clipPath id="SVGID_00000012430464124123480150000011316445687527217832_">
		<use xlink:href="#SVGID_1_"  style="overflow:visible;"/>
	</clipPath>
	<g style="clip-path:url(#SVGID_00000012430464124123480150000011316445687527217832_);">
		<path class="st1" d="M924,591c0,47,0,94,0,141c-48.25,0-96.5,0-144.75,0c1.09-0.21,2.18-0.54,3.28-0.6
			c18.15-1.06,35.63-5.1,52-12.94c8.97-4.3,17.43-9.67,25.95-14.84c3.21-1.95,3.61-5.46,1.66-8.12c-1.84-2.5-4.93-2.94-7.99-1.11
			c-0.64,0.38-1.24,0.84-1.86,1.25c-41.17,27.16-85.01,32.43-131.05,14.8c-65.15-24.95-101.65-96.9-84.07-164.53
			c18.28-70.31,86.08-114.76,157.84-103.48c77.48,12.18,130.37,87.73,115.2,164.52c-5.45,27.58-18,51.42-37.57,71.58
			c-3.24,3.34-3.49,6.68-0.84,9.14c2.59,2.41,5.71,2.04,8.84-1.17c21.03-21.59,34.7-47.09,40.47-76.71
			C922.3,603.57,923.04,597.26,924,591z M700.05,500.9c3.41-2.72,6.12-5.15,9.09-7.2c4.1-2.83,8.36-5.45,12.63-8.03
			c3.83-2.32,5.12-5.15,3.5-8.24c-1.68-3.21-4.99-3.83-9.06-1.7c-46.29,24.25-71.61,79.79-59.65,130.86
			c14.26,60.91,70.62,99.91,132.62,91.77c66.02-8.67,112.74-72.73,100.9-138.36c-11.2-62.05-67.76-104.56-130.33-97.84
			c-5.69,0.61-11.32,1.89-16.91,3.16c-3.45,0.78-5.09,3.69-4.29,6.77c0.87,3.35,3.23,4.57,6.52,4.18c1.11-0.13,2.18-0.52,3.29-0.7
			c6.09-0.98,12.19-1.93,18.78-2.97c0,5.27-0.03,9.62,0.01,13.96c0.04,4.32,2.22,6.93,5.66,6.88c3.45-0.05,5.58-2.66,5.63-7
			c0.04-4.34,0.01-8.68,0.01-13.47c25.58,1.64,47.5,10.69,66.86,27.9c-3.14,2.94-6.02,5.52-8.77,8.23c-3.84,3.78-4.38,7-1.78,9.65
			c2.68,2.73,5.88,2.24,9.65-1.58c2.78-2.82,5.47-5.72,8.39-8.78c16.91,19.5,26.06,41.25,27.5,66.65c-4.52,0-8.5-0.03-12.49,0.01
			c-4.6,0.04-6.95,1.86-7.07,5.4c-0.12,3.66,2.45,5.84,7.05,5.89c4.09,0.04,8.17,0.01,12.51,0.01
			c-1.76,25.34-10.69,47.05-27.66,66.31c-2.65-2.88-4.86-5.42-7.21-7.82c-4.13-4.22-7.53-4.88-10.22-2.1
			c-2.71,2.79-2.04,5.91,2.37,10.2c2.41,2.34,4.98,4.53,7.78,7.05c-19.31,17.01-40.91,26.23-66.2,27.99c0-4.47,0.04-8.44-0.01-12.41
			c-0.05-4.32-2.21-6.96-5.63-7.01c-3.5-0.05-5.62,2.47-5.66,6.86c-0.04,4.08-0.01,8.17-0.01,12.64
			c-25.5-1.42-47.27-10.34-66.64-27.06c3.29-3.16,6.39-6.03,9.37-9.03c3.13-3.16,3.35-6.34,0.76-8.85c-2.56-2.48-5.68-2.2-8.85,1.02
			c-2.96,3.01-5.78,6.16-8.84,9.43c-17.18-19.26-26.51-41-28.43-66.47c4.71,0,9.05,0.06,13.39-0.02c4.39-0.08,6.9-2.22,6.9-5.72
			c0-3.52-2.44-5.55-6.91-5.6c-4.35-0.05-8.69-0.01-13.48-0.01c1.53-25.63,10.47-47.63,27.57-67.28c3.32,3.54,6.3,6.88,9.44,10.04
			c3.1,3.12,6.41,3.3,8.88,0.73c2.3-2.39,2.08-5.72-0.79-8.61C707.04,507.45,703.73,504.41,700.05,500.9z M778.45,550.4
			c0-4.87,0.03-9.75-0.01-14.62c-0.04-4.69-2.11-7.17-5.83-7.09c-3.56,0.08-5.44,2.43-5.45,7.01c-0.03,9.5-0.06,19,0.03,28.5
			c0.02,2.28-0.45,3.8-2.52,5.25c-5.51,3.85-7.22,10.7-4.6,16.65c2.63,5.95,8.85,9.39,15.37,7.84c2.8-0.67,4.28,0.14,6.07,1.96
			c10.89,11.03,21.88,21.96,32.84,32.92c0.8,0.79,1.53,1.68,2.43,2.33c2.55,1.85,5.22,1.9,7.49-0.33c2.26-2.22,2.27-4.9,0.46-7.48
			c-0.64-0.91-1.53-1.65-2.32-2.44c-11.4-11.41-22.83-22.78-34.15-34.26c-0.97-0.98-1.82-2.71-1.72-4.02
			c0.41-5.74-1.52-10.19-6.13-13.66c-0.98-0.74-1.82-2.32-1.87-3.55C778.32,560.4,778.45,555.4,778.45,550.4z"/>
		<path class="st1" d="M540,570c0-67.44,0-134.87,0-202.5c62.75,0,125.5,0,188.25,0c-0.45,0.2-0.88,0.48-1.35,0.6
			c-8.52,2.28-12.98,7.94-13.14,16.79c-0.06,3.5-0.03,7-0.01,10.5c0.05,12,6.57,18.53,18.52,18.55c5.71,0.01,11.41,0,17.29,0
			c0,5.91,0,11.36,0,17.09c-21.29,3.4-40.92,10.97-59.05,22.57c-3.15-3.7-6.02-7.07-8.94-10.5c2.62-2.27,4.94-4.17,7.13-6.21
			c2.98-2.77,3.18-5.73,0.55-8.89c-3.6-4.32-7.27-8.58-11-12.79c-3.14-3.54-5.83-3.76-9.38-0.72
			c-13.48,11.53-26.94,23.09-40.37,34.69c-3.26,2.81-3.51,5.85-0.77,9.14c3.59,4.32,7.27,8.58,11,12.79
			c3.11,3.51,5.78,3.67,9.4,0.71c2.29-1.87,4.52-3.8,6.92-5.82c2.99,3.47,5.72,6.65,8.15,9.47c-5.61,7.33-11.2,14.06-16.09,21.27
			c-2.39,3.52-4.76,4.92-9.01,4.79c-9.99-0.33-19.99-0.16-29.99-0.06c-3.92,0.04-6.14,2.23-6.14,5.58c0,3.32,2.27,5.46,6.12,5.68
			c1.74,0.1,3.5,0.03,5.25,0.03c7.83,0,15.67,0,23.91,0c-2.69,6.42-5.18,12.33-7.68,18.31c-18.68,0-37.17-0.02-55.66,0.01
			c-4.4,0.01-6.91,2.12-6.94,5.63c-0.03,3.53,2.44,5.65,6.85,5.67c12.37,0.04,24.74,0.02,37.11,0.02c4.99,0,9.97,0,15.02,0
			c-1.18,7.02-2.56,13.73-3.32,20.51c-0.35,3.15-1.43,3.84-4.36,3.83c-23.24-0.1-46.49-0.01-69.73-0.11
			C545.11,566.6,542.21,567.26,540,570z"/>
		<path class="st1" d="M540,570c2.21-2.74,5.11-3.4,8.55-3.38c23.24,0.11,46.49,0.01,69.73,0.11c2.93,0.01,4.01-0.68,4.36-3.83
			c0.75-6.78,2.14-13.49,3.32-20.51c-5.05,0-10.03,0-15.02,0c-12.37,0-24.74,0.02-37.11-0.02c-4.41-0.01-6.88-2.14-6.85-5.67
			c0.03-3.51,2.54-5.62,6.94-5.63c18.49-0.03,36.98-0.01,55.66-0.01c2.51-5.98,4.99-11.89,7.68-18.31c-8.24,0-16.08,0-23.91,0
			c-1.75,0-3.5,0.07-5.25-0.03c-3.86-0.21-6.12-2.36-6.12-5.68c0-3.35,2.22-5.54,6.14-5.58c10-0.1,20-0.26,29.99,0.06
			c4.25,0.14,6.63-1.27,9.01-4.79c4.89-7.21,10.48-13.94,16.09-21.27c-2.43-2.82-5.16-6-8.15-9.47c-2.4,2.02-4.64,3.96-6.92,5.82
			c-3.62,2.96-6.29,2.8-9.4-0.71c-3.73-4.2-7.41-8.46-11-12.79c-2.74-3.29-2.48-6.33,0.77-9.14c13.43-11.6,26.88-23.16,40.37-34.69
			c3.55-3.03,6.24-2.81,9.38,0.72c3.73,4.2,7.4,8.47,11,12.79c2.64,3.16,2.43,6.12-0.55,8.89c-2.19,2.04-4.51,3.94-7.13,6.21
			c2.92,3.43,5.79,6.8,8.94,10.5c18.14-11.61,37.76-19.17,59.05-22.57c0-5.73,0-11.18,0-17.09c-5.88,0-11.59,0.01-17.29,0
			c-11.96-0.02-18.48-6.54-18.52-18.55c-0.01-3.5-0.05-7,0.01-10.5c0.16-8.86,4.61-14.51,13.14-16.79c0.47-0.13,0.9-0.4,1.35-0.6
			c29.75,0,59.5,0,89.25,0c0.43,0.22,0.84,0.51,1.3,0.64c8.4,2.35,12.9,8.21,12.96,16.97c0.03,4.12,0.07,8.25-0.02,12.37
			c-0.18,8.66-6.46,15.53-15.02,16.35c-2.6,0.25-5.25,0.09-7.87,0.1c-4.31,0.01-8.63,0-12.87,0c0,6.06,0,11.52,0,17.11
			c20.88,3.33,40.1,10.63,57.96,21.91c2.88-3.38,5.59-6.55,8.4-9.84c-2.59-2.24-4.8-4.07-6.93-5.99c-3.29-2.97-3.56-5.72-0.75-9.11
			c3.67-4.42,7.41-8.79,11.22-13.09c2.77-3.13,5.63-3.41,8.84-0.67c13.69,11.68,27.34,23.41,40.93,35.21
			c3.18,2.76,3.26,5.54,0.51,8.85c-3.67,4.42-7.41,8.8-11.23,13.09c-2.8,3.15-5.57,3.29-8.86,0.65c-2.39-1.93-4.71-3.94-7.24-6.07
			c-2.73,3.21-5.21,6.11-7.72,9.06c0.72,0.8,1.22,1.36,1.72,1.91c19.18,20.57,31.92,44.55,37.77,72.07
			c1.52,7.16,2.28,14.48,3.38,21.73c0,6.75,0,13.5,0,20.25c-0.96,6.26-1.7,12.57-2.91,18.78c-5.76,29.63-19.44,55.12-40.47,76.71
			c-3.13,3.21-6.25,3.58-8.84,1.17c-2.64-2.47-2.4-5.8,0.84-9.14c19.58-20.16,32.12-44,37.57-71.58
			c15.17-76.79-37.72-152.34-115.2-164.52c-71.76-11.28-139.55,33.17-157.84,103.48c-17.58,67.63,18.92,139.58,84.07,164.53
			c46.04,17.63,89.88,12.36,131.05-14.8c0.63-0.41,1.22-0.87,1.86-1.25c3.06-1.83,6.15-1.39,7.99,1.11
			c1.95,2.65,1.55,6.17-1.66,8.12c-8.52,5.17-16.98,10.55-25.95,14.84c-16.38,7.85-33.85,11.88-52,12.94
			c-1.1,0.06-2.19,0.39-3.28,0.6c-4.25,0-8.5,0-12.75,0c-5.08-0.57-10.19-0.91-15.22-1.75c-52.29-8.77-90.54-36.79-114.64-84.02
			c-1.13-2.21-2.35-3.03-4.84-2.98c-9.12,0.16-18.25,0.08-27.37,0.06c-5.04-0.01-7.69-1.95-7.77-5.6c-0.09-3.72,2.48-5.68,7.54-5.7
			c4.5-0.02,9,0,13.5,0c4.06,0,8.12,0,12.55,0c-1.86-6.46-3.54-12.28-5.33-18.47c-1.41,0-2.89,0-4.36,0
			c-17.25,0-34.5,0.01-51.74-0.01c-4.16,0-6.53-1.62-7.04-4.68c-0.63-3.81,2.06-6.59,6.6-6.6c16.75-0.04,33.5-0.02,50.24-0.02
			c1.35,0,2.69,0,4.08,0c-0.5-8.18-0.97-15.98-1.47-24.16c-1.59,0-3.07,0-4.54,0c-22.75,0-45.49-0.04-68.24,0.04
			c-3.46,0.01-6.38-0.64-8.45-3.61C540,573,540,571.5,540,570z M761.28,429.41c7.91,0,15.44,0,23,0c0-5.2,0-10.14,0-15.25
			c-7.74,0-15.28,0-23,0C761.28,419.31,761.28,424.25,761.28,429.41z M644.26,460.2c11.2-9.63,22.13-19.03,33.22-28.56
			c-1.66-1.92-3.11-3.58-4.79-5.52c-11.18,9.62-22.11,19.01-33.18,28.53C641.18,456.6,642.61,458.28,644.26,460.2z M866.43,431.65
			c11.14,9.57,22.08,18.98,33.18,28.52c1.71-1.96,3.15-3.61,4.81-5.51c-11.18-9.61-22.13-19.01-33.22-28.55
			C869.5,428.08,868.05,429.77,866.43,431.65z M736.26,379c-1.8,0-3.16-0.02-4.51,0c-5,0.1-6.61,1.74-6.65,6.81
			c-0.03,3.73-0.01,7.46,0.01,11.19c0.02,3.46,1.91,5.28,5.22,5.59c1.92,0.18,3.87,0.03,5.93,0.03
			C736.26,394.59,736.26,387.06,736.26,379z M809.28,402.66c1.55,0,2.77,0.01,3.98,0c5.46-0.04,7.19-1.74,7.22-7.13
			c0.02-3.62,0.04-7.24-0.02-10.85c-0.05-3.21-1.7-5.2-4.91-5.55c-2.04-0.22-4.11-0.04-6.28-0.04
			C809.28,387.09,809.28,394.56,809.28,402.66z M747.96,379.24c0,7.83,0,15.47,0,23.15c3.03,0,5.8,0,8.67,0c0-7.82,0-15.37,0-23.15
			C753.68,379.24,750.89,379.24,747.96,379.24z M768.36,379.21c0,7.96,0,15.52,0,23.17c3.04,0,5.83,0,8.66,0c0-7.84,0-15.41,0-23.17
			C774.07,379.21,771.37,379.21,768.36,379.21z M797.59,402.47c0-7.97,0-15.52,0-23.46c-2.48,0-4.71-0.13-6.91,0.08
			c-0.7,0.07-1.88,1.04-1.89,1.61c-0.13,7.2-0.09,14.39-0.09,21.76C791.91,402.47,794.61,402.47,797.59,402.47z M663.61,458.54
			c2.85,3.3,5.42,6.29,8.12,9.42c3.25-2.71,6.27-5.23,9.45-7.88c-2.84-3.27-5.49-6.32-8.28-9.53
			C669.7,453.3,666.79,455.8,663.61,458.54z M863.35,459.38c3.28,2.67,6.32,5.14,9.55,7.77c2.53-2.95,4.89-5.71,7.4-8.63
			c-3.28-2.81-6.18-5.3-9.31-7.99C868.46,453.46,866.04,456.26,863.35,459.38z"/>
		<path class="st1" d="M540,574.5c2.07,2.97,4.99,3.62,8.45,3.61c22.75-0.08,45.49-0.04,68.24-0.04c1.47,0,2.95,0,4.54,0
			c0.5,8.18,0.97,15.98,1.47,24.16c-1.39,0-2.73,0-4.08,0c-16.75,0-33.5-0.02-50.24,0.02c-4.54,0.01-7.23,2.79-6.6,6.6
			c0.51,3.06,2.88,4.68,7.04,4.68c17.25,0.02,34.5,0.01,51.74,0.01c1.47,0,2.95,0,4.36,0c1.79,6.2,3.47,12.02,5.33,18.47
			c-4.43,0-8.49,0-12.55,0c-4.5,0-9-0.02-13.5,0c-5.06,0.02-7.63,1.98-7.54,5.7c0.08,3.65,2.73,5.59,7.77,5.6
			c9.12,0.02,18.25,0.1,27.37-0.06c2.49-0.04,3.71,0.78,4.84,2.98c24.1,47.23,62.35,75.25,114.64,84.02
			c5.03,0.84,10.15,1.18,15.22,1.75c-75.43,0-150.85,0-226.5,0C540,679.5,540,627,540,574.5z"/>
		<path class="st1" d="M924,570.75c-1.11-7.25-1.86-14.57-3.38-21.73c-5.85-27.52-18.59-51.5-37.77-72.07
			c-0.51-0.54-1-1.1-1.72-1.91c2.51-2.95,4.99-5.85,7.72-9.06c2.53,2.13,4.85,4.14,7.24,6.07c3.28,2.65,6.06,2.5,8.86-0.65
			c3.82-4.29,7.56-8.67,11.23-13.09c2.75-3.31,2.67-6.08-0.51-8.85c-13.59-11.8-27.23-23.53-40.93-35.21
			c-3.22-2.74-6.07-2.46-8.84,0.67c-3.81,4.3-7.55,8.67-11.22,13.09c-2.81,3.39-2.54,6.14,0.75,9.11c2.13,1.92,4.34,3.75,6.93,5.99
			c-2.8,3.29-5.51,6.46-8.4,9.84c-17.86-11.28-37.08-18.57-57.96-21.91c0-5.59,0-11.05,0-17.11c4.24,0,8.56,0.01,12.87,0
			c2.62-0.01,5.27,0.15,7.87-0.1c8.56-0.82,14.84-7.69,15.02-16.35c0.09-4.12,0.05-8.25,0.02-12.37
			c-0.06-8.76-4.56-14.62-12.96-16.97c-0.46-0.13-0.87-0.42-1.3-0.64c35.5,0,71,0,106.5,0C924,435.25,924,503,924,570.75z"/>
		<path class="st1" d="M700.05,500.9c3.67,3.51,6.98,6.55,10.15,9.74c2.87,2.89,3.09,6.22,0.79,8.61c-2.47,2.57-5.78,2.39-8.88-0.73
			c-3.15-3.17-6.12-6.5-9.44-10.04c-17.1,19.65-26.04,41.65-27.57,67.28c4.79,0,9.14-0.04,13.48,0.01c4.47,0.05,6.92,2.08,6.91,5.6
			c0,3.5-2.51,5.65-6.9,5.72c-4.34,0.08-8.68,0.02-13.39,0.02c1.92,25.47,11.26,47.21,28.43,66.47c3.06-3.27,5.88-6.42,8.84-9.43
			c3.17-3.22,6.3-3.5,8.85-1.02c2.58,2.51,2.37,5.69-0.76,8.85c-2.97,3-6.07,5.87-9.37,9.03c19.37,16.72,41.15,25.64,66.64,27.06
			c0-4.47-0.03-8.56,0.01-12.64c0.05-4.39,2.17-6.91,5.66-6.86c3.42,0.05,5.57,2.69,5.63,7.01c0.05,3.97,0.01,7.94,0.01,12.41
			c25.29-1.76,46.88-10.98,66.2-27.99c-2.8-2.53-5.37-4.71-7.78-7.05c-4.41-4.29-5.08-7.41-2.37-10.2c2.69-2.77,6.08-2.12,10.22,2.1
			c2.35,2.4,4.56,4.94,7.21,7.82c16.98-19.26,25.91-40.98,27.66-66.31c-4.34,0-8.42,0.03-12.51-0.01c-4.6-0.05-7.17-2.22-7.05-5.89
			c0.11-3.54,2.47-5.36,7.07-5.4c3.98-0.03,7.96-0.01,12.49-0.01c-1.45-25.4-10.59-47.16-27.5-66.65c-2.92,3.06-5.61,5.97-8.39,8.78
			c-3.77,3.82-6.97,4.31-9.65,1.58c-2.6-2.65-2.06-5.87,1.78-9.65c2.75-2.71,5.63-5.29,8.77-8.23
			c-19.36-17.2-41.27-26.25-66.86-27.9c0,4.79,0.03,9.13-0.01,13.47c-0.04,4.34-2.18,6.95-5.63,7c-3.44,0.05-5.62-2.56-5.66-6.88
			c-0.04-4.35-0.01-8.69-0.01-13.96c-6.59,1.04-12.69,1.99-18.78,2.97c-1.11,0.18-2.18,0.57-3.29,0.7
			c-3.29,0.38-5.64-0.83-6.52-4.18c-0.8-3.08,0.84-5.99,4.29-6.77c5.59-1.27,11.23-2.54,16.91-3.16
			c62.57-6.73,119.13,35.79,130.33,97.84c11.85,65.62-34.87,129.69-100.9,138.36c-62,8.14-118.37-30.87-132.62-91.77
			c-11.95-51.07,13.37-106.6,59.65-130.86c4.07-2.13,7.37-1.51,9.06,1.7c1.62,3.1,0.33,5.93-3.5,8.24
			c-4.27,2.58-8.53,5.19-12.63,8.03C706.18,495.75,703.46,498.18,700.05,500.9z"/>
		<path class="st1" d="M778.45,550.4c0,5-0.12,10,0.09,15c0.05,1.23,0.89,2.81,1.87,3.55c4.62,3.47,6.55,7.92,6.13,13.66
			c-0.09,1.31,0.75,3.03,1.72,4.02c11.32,11.48,22.75,22.85,34.15,34.26c0.79,0.8,1.68,1.53,2.32,2.44c1.82,2.58,1.8,5.26-0.46,7.48
			c-2.26,2.22-4.94,2.18-7.49,0.33c-0.9-0.65-1.64-1.54-2.43-2.33c-10.96-10.96-21.95-21.89-32.84-32.92
			c-1.8-1.82-3.27-2.63-6.07-1.96c-6.52,1.56-12.74-1.89-15.37-7.84c-2.63-5.95-0.92-12.8,4.6-16.65c2.07-1.45,2.54-2.97,2.52-5.25
			c-0.09-9.5-0.06-19-0.03-28.5c0.01-4.58,1.89-6.94,5.45-7.01c3.72-0.08,5.8,2.4,5.83,7.09
			C778.47,540.65,778.45,545.52,778.45,550.4z M772.64,583.79c1.15-1.41,2.42-2.28,2.39-3.11c-0.03-0.86-1.31-1.68-2.04-2.52
			c-0.89,0.79-2.23,1.46-2.52,2.43C770.27,581.23,771.58,582.32,772.64,583.79z"/>
		<path class="st1" d="M761.28,429.41c0-5.15,0-10.1,0-15.25c7.73,0,15.27,0,23,0c0,5.11,0,10.06,0,15.25
			C776.72,429.41,769.19,429.41,761.28,429.41z"/>
		<path class="st1" d="M644.26,460.2c-1.65-1.93-3.08-3.6-4.75-5.55c11.06-9.51,21.99-18.91,33.18-28.53
			c1.68,1.93,3.13,3.6,4.79,5.52C666.39,441.18,655.46,450.58,644.26,460.2z"/>
		<path class="st1" d="M866.43,431.65c1.62-1.88,3.07-3.57,4.77-5.53c11.09,9.53,22.04,18.94,33.22,28.55
			c-1.65,1.89-3.1,3.55-4.81,5.51C888.51,450.63,877.56,441.22,866.43,431.65z"/>
		<path class="st1" d="M736.26,379c0,8.06,0,15.59,0,23.62c-2.05,0-4.01,0.15-5.93-0.03c-3.31-0.31-5.21-2.12-5.22-5.59
			c-0.02-3.73-0.04-7.46-0.01-11.19c0.04-5.07,1.65-6.71,6.65-6.81C733.1,378.98,734.45,379,736.26,379z"/>
		<path class="st1" d="M809.28,402.66c0-8.1,0-15.57,0-23.57c2.16,0,4.24-0.18,6.28,0.04c3.21,0.34,4.86,2.33,4.91,5.55
			c0.05,3.62,0.03,7.24,0.02,10.85c-0.03,5.39-1.76,7.09-7.22,7.13C812.04,402.66,810.83,402.66,809.28,402.66z"/>
		<path class="st1" d="M747.96,379.24c2.93,0,5.72,0,8.67,0c0,7.79,0,15.34,0,23.15c-2.87,0-5.65,0-8.67,0
			C747.96,394.7,747.96,387.07,747.96,379.24z"/>
		<path class="st1" d="M768.36,379.21c3.02,0,5.71,0,8.66,0c0,7.77,0,15.33,0,23.17c-2.83,0-5.62,0-8.66,0
			C768.36,394.73,768.36,387.16,768.36,379.21z"/>
		<path class="st1" d="M797.59,402.47c-2.97,0-5.67,0-8.89,0c0-7.37-0.04-14.57,0.09-21.76c0.01-0.57,1.19-1.54,1.89-1.61
			c2.2-0.21,4.43-0.08,6.91-0.08C797.59,386.95,797.59,394.5,797.59,402.47z"/>
		<path class="st1" d="M663.61,458.54c3.18-2.74,6.09-5.24,9.29-7.99c2.78,3.2,5.44,6.26,8.28,9.53c-3.18,2.65-6.2,5.17-9.45,7.88
			C669.03,464.83,666.45,461.84,663.61,458.54z"/>
		<path class="st1" d="M863.35,459.38c2.69-3.12,5.11-5.92,7.63-8.85c3.13,2.69,6.04,5.18,9.31,7.99c-2.5,2.92-4.87,5.68-7.4,8.63
			C869.67,464.52,866.63,462.05,863.35,459.38z"/>
		<path class="st1" d="M772.64,583.79c-1.06-1.46-2.37-2.56-2.18-3.19c0.29-0.98,1.63-1.64,2.52-2.43c0.73,0.84,2.01,1.65,2.04,2.52
			C775.05,581.51,773.79,582.38,772.64,583.79z"/>
	</g>
</g>
</svg>
